<mxfile host="app.diagrams.net" modified="2023-10-24T08:44:24.555Z" agent="Mozilla/5.0 (Windows NT 10.0; Win64; x64) AppleWebKit/537.36 (KHTML, like Gecko) Chrome/118.0.0.0 Safari/537.36 Edg/118.0.2088.46" version="21.7.2" etag="okpZ44Ve16tmQk9BkN6c" type="device">
  <diagram id="BObdDL5u9c1pji6mdaGN" name="第 1 页">
    <mxGraphModel dx="-616" dy="2232" grid="1" gridSize="10" guides="1" tooltips="1" connect="1" arrows="1" fold="1" page="1" pageScale="1" pageWidth="827" pageHeight="1169" math="0" shadow="0">
      <root>
        <mxCell id="0" />
        <mxCell id="1" parent="0" />
        <mxCell id="1l3ItpdetxaNJWkch8zp-16" value="Mindmap" style="swimlane;startSize=20;horizontal=1;containerType=tree;aspect=fixed;" vertex="1" parent="1">
          <mxGeometry x="2517" y="-630" width="20029" height="12615.6" as="geometry">
            <mxRectangle x="140" y="810" width="90" height="30" as="alternateBounds" />
          </mxGeometry>
        </mxCell>
        <mxCell id="1l3ItpdetxaNJWkch8zp-17" value="" style="edgeStyle=orthogonalEdgeStyle;startArrow=none;endArrow=none;segment=10;curved=1;sourcePerimeterSpacing=0;targetPerimeterSpacing=0;rounded=0;noEdgeStyle=1;orthogonal=1;" edge="1" parent="1l3ItpdetxaNJWkch8zp-16" source="1l3ItpdetxaNJWkch8zp-21" target="1l3ItpdetxaNJWkch8zp-22">
          <mxGeometry relative="1" as="geometry" />
        </mxCell>
        <mxCell id="1l3ItpdetxaNJWkch8zp-18" value="" style="edgeStyle=orthogonalEdgeStyle;startArrow=none;endArrow=none;segment=10;curved=1;sourcePerimeterSpacing=0;targetPerimeterSpacing=0;rounded=0;noEdgeStyle=1;orthogonal=1;" edge="1" parent="1l3ItpdetxaNJWkch8zp-16" source="1l3ItpdetxaNJWkch8zp-21" target="1l3ItpdetxaNJWkch8zp-23">
          <mxGeometry relative="1" as="geometry" />
        </mxCell>
        <mxCell id="1l3ItpdetxaNJWkch8zp-19" value="" style="edgeStyle=orthogonalEdgeStyle;startArrow=none;endArrow=none;segment=10;curved=1;sourcePerimeterSpacing=0;targetPerimeterSpacing=0;rounded=0;noEdgeStyle=1;orthogonal=1;" edge="1" parent="1l3ItpdetxaNJWkch8zp-16" source="1l3ItpdetxaNJWkch8zp-21" target="1l3ItpdetxaNJWkch8zp-24">
          <mxGeometry relative="1" as="geometry" />
        </mxCell>
        <mxCell id="1l3ItpdetxaNJWkch8zp-20" value="" style="edgeStyle=orthogonalEdgeStyle;startArrow=none;endArrow=none;segment=10;curved=1;sourcePerimeterSpacing=0;targetPerimeterSpacing=0;rounded=0;noEdgeStyle=1;orthogonal=1;" edge="1" parent="1l3ItpdetxaNJWkch8zp-16" source="1l3ItpdetxaNJWkch8zp-21" target="1l3ItpdetxaNJWkch8zp-25">
          <mxGeometry relative="1" as="geometry" />
        </mxCell>
        <mxCell id="1l3ItpdetxaNJWkch8zp-21" value="Central Idea" style="ellipse;whiteSpace=wrap;html=1;align=center;treeFolding=1;treeMoving=1;newEdgeStyle={&quot;edgeStyle&quot;:&quot;entityRelationEdgeStyle&quot;,&quot;startArrow&quot;:&quot;none&quot;,&quot;endArrow&quot;:&quot;none&quot;,&quot;segment&quot;:10,&quot;curved&quot;:1,&quot;sourcePerimeterSpacing&quot;:0,&quot;targetPerimeterSpacing&quot;:0};" vertex="1" parent="1l3ItpdetxaNJWkch8zp-16">
          <mxGeometry x="709" y="629" width="100" height="40" as="geometry" />
        </mxCell>
        <mxCell id="1l3ItpdetxaNJWkch8zp-22" value="Topic" style="whiteSpace=wrap;html=1;rounded=1;arcSize=50;align=center;verticalAlign=middle;strokeWidth=1;autosize=1;spacing=4;treeFolding=1;treeMoving=1;newEdgeStyle={&quot;edgeStyle&quot;:&quot;entityRelationEdgeStyle&quot;,&quot;startArrow&quot;:&quot;none&quot;,&quot;endArrow&quot;:&quot;none&quot;,&quot;segment&quot;:10,&quot;curved&quot;:1,&quot;sourcePerimeterSpacing&quot;:0,&quot;targetPerimeterSpacing&quot;:0};" vertex="1" parent="1l3ItpdetxaNJWkch8zp-16">
          <mxGeometry x="859" y="40" width="80" height="20" as="geometry" />
        </mxCell>
        <mxCell id="1l3ItpdetxaNJWkch8zp-23" value="Branch" style="whiteSpace=wrap;html=1;shape=partialRectangle;top=0;left=0;bottom=1;right=0;points=[[0,1],[1,1]];fillColor=none;align=center;verticalAlign=bottom;routingCenterY=0.5;snapToPoint=1;autosize=1;treeFolding=1;treeMoving=1;newEdgeStyle={&quot;edgeStyle&quot;:&quot;entityRelationEdgeStyle&quot;,&quot;startArrow&quot;:&quot;none&quot;,&quot;endArrow&quot;:&quot;none&quot;,&quot;segment&quot;:10,&quot;curved&quot;:1,&quot;sourcePerimeterSpacing&quot;:0,&quot;targetPerimeterSpacing&quot;:0};" vertex="1" parent="1l3ItpdetxaNJWkch8zp-16">
          <mxGeometry x="859" y="100" width="72" height="26" as="geometry" />
        </mxCell>
        <mxCell id="1l3ItpdetxaNJWkch8zp-24" value="Topic" style="whiteSpace=wrap;html=1;rounded=1;arcSize=50;align=center;verticalAlign=middle;strokeWidth=1;autosize=1;spacing=4;treeFolding=1;treeMoving=1;newEdgeStyle={&quot;edgeStyle&quot;:&quot;entityRelationEdgeStyle&quot;,&quot;startArrow&quot;:&quot;none&quot;,&quot;endArrow&quot;:&quot;none&quot;,&quot;segment&quot;:10,&quot;curved&quot;:1,&quot;sourcePerimeterSpacing&quot;:0,&quot;targetPerimeterSpacing&quot;:0};" vertex="1" parent="1l3ItpdetxaNJWkch8zp-16">
          <mxGeometry x="859" y="166" width="80" height="20" as="geometry" />
        </mxCell>
        <mxCell id="1l3ItpdetxaNJWkch8zp-25" value="Branch" style="whiteSpace=wrap;html=1;shape=partialRectangle;top=0;left=0;bottom=1;right=0;points=[[0,1],[1,1]];fillColor=none;align=center;verticalAlign=bottom;routingCenterY=0.5;snapToPoint=1;autosize=1;treeFolding=1;treeMoving=1;newEdgeStyle={&quot;edgeStyle&quot;:&quot;entityRelationEdgeStyle&quot;,&quot;startArrow&quot;:&quot;none&quot;,&quot;endArrow&quot;:&quot;none&quot;,&quot;segment&quot;:10,&quot;curved&quot;:1,&quot;sourcePerimeterSpacing&quot;:0,&quot;targetPerimeterSpacing&quot;:0};" vertex="1" parent="1l3ItpdetxaNJWkch8zp-16">
          <mxGeometry x="859" y="226" width="72" height="26" as="geometry" />
        </mxCell>
        <mxCell id="1l3ItpdetxaNJWkch8zp-26" value="" style="edgeStyle=orthogonalEdgeStyle;startArrow=none;endArrow=none;segment=10;curved=1;sourcePerimeterSpacing=0;targetPerimeterSpacing=0;rounded=0;noEdgeStyle=1;orthogonal=1;" edge="1" target="1l3ItpdetxaNJWkch8zp-27" source="1l3ItpdetxaNJWkch8zp-21" parent="1l3ItpdetxaNJWkch8zp-16">
          <mxGeometry relative="1" as="geometry">
            <mxPoint x="260" y="1609" as="sourcePoint" />
          </mxGeometry>
        </mxCell>
        <mxCell id="1l3ItpdetxaNJWkch8zp-27" value="Branch" style="whiteSpace=wrap;html=1;shape=partialRectangle;top=0;left=0;bottom=1;right=0;points=[[0,1],[1,1]];fillColor=none;align=center;verticalAlign=bottom;routingCenterY=0.5;snapToPoint=1;autosize=1;treeFolding=1;treeMoving=1;newEdgeStyle={&quot;edgeStyle&quot;:&quot;entityRelationEdgeStyle&quot;,&quot;startArrow&quot;:&quot;none&quot;,&quot;endArrow&quot;:&quot;none&quot;,&quot;segment&quot;:10,&quot;curved&quot;:1,&quot;sourcePerimeterSpacing&quot;:0,&quot;targetPerimeterSpacing&quot;:0};" vertex="1" parent="1l3ItpdetxaNJWkch8zp-16">
          <mxGeometry x="859" y="292" width="72" height="26" as="geometry" />
        </mxCell>
        <mxCell id="1l3ItpdetxaNJWkch8zp-36" value="" style="edgeStyle=orthogonalEdgeStyle;rounded=0;orthogonalLoop=1;jettySize=auto;html=1;startArrow=none;endArrow=none;segment=10;curved=1;sourcePerimeterSpacing=0;targetPerimeterSpacing=0;noEdgeStyle=1;orthogonal=1;" edge="1" source="1l3ItpdetxaNJWkch8zp-21" target="1l3ItpdetxaNJWkch8zp-37" parent="1l3ItpdetxaNJWkch8zp-16">
          <mxGeometry relative="1" as="geometry" />
        </mxCell>
        <mxCell id="1l3ItpdetxaNJWkch8zp-37" value="Central Idea" style="ellipse;whiteSpace=wrap;html=1;align=center;treeFolding=1;treeMoving=1;newEdgeStyle={&quot;edgeStyle&quot;:&quot;entityRelationEdgeStyle&quot;,&quot;startArrow&quot;:&quot;none&quot;,&quot;endArrow&quot;:&quot;none&quot;,&quot;segment&quot;:10,&quot;curved&quot;:1,&quot;sourcePerimeterSpacing&quot;:0,&quot;targetPerimeterSpacing&quot;:0};" vertex="1" parent="1l3ItpdetxaNJWkch8zp-16">
          <mxGeometry x="859" y="358" width="100" height="40" as="geometry" />
        </mxCell>
        <mxCell id="1l3ItpdetxaNJWkch8zp-38" value="" style="edgeStyle=orthogonalEdgeStyle;rounded=0;orthogonalLoop=1;jettySize=auto;html=1;startArrow=none;endArrow=none;segment=10;curved=1;sourcePerimeterSpacing=0;targetPerimeterSpacing=0;noEdgeStyle=1;orthogonal=1;" edge="1" source="1l3ItpdetxaNJWkch8zp-21" target="1l3ItpdetxaNJWkch8zp-39" parent="1l3ItpdetxaNJWkch8zp-16">
          <mxGeometry relative="1" as="geometry" />
        </mxCell>
        <mxCell id="1l3ItpdetxaNJWkch8zp-39" value="Central Idea" style="ellipse;whiteSpace=wrap;html=1;align=center;treeFolding=1;treeMoving=1;newEdgeStyle={&quot;edgeStyle&quot;:&quot;entityRelationEdgeStyle&quot;,&quot;startArrow&quot;:&quot;none&quot;,&quot;endArrow&quot;:&quot;none&quot;,&quot;segment&quot;:10,&quot;curved&quot;:1,&quot;sourcePerimeterSpacing&quot;:0,&quot;targetPerimeterSpacing&quot;:0};" vertex="1" collapsed="1" parent="1l3ItpdetxaNJWkch8zp-16">
          <mxGeometry x="859" y="438" width="100" height="40" as="geometry" />
        </mxCell>
        <mxCell id="1l3ItpdetxaNJWkch8zp-40" value="" style="edgeStyle=orthogonalEdgeStyle;rounded=0;orthogonalLoop=1;jettySize=auto;html=1;startArrow=none;endArrow=none;segment=10;curved=1;sourcePerimeterSpacing=0;targetPerimeterSpacing=0;noEdgeStyle=1;orthogonal=1;" edge="1" source="1l3ItpdetxaNJWkch8zp-21" target="1l3ItpdetxaNJWkch8zp-41" parent="1l3ItpdetxaNJWkch8zp-16">
          <mxGeometry relative="1" as="geometry" />
        </mxCell>
        <mxCell id="1l3ItpdetxaNJWkch8zp-41" value="Central Idea" style="ellipse;whiteSpace=wrap;html=1;align=center;treeFolding=1;treeMoving=1;newEdgeStyle={&quot;edgeStyle&quot;:&quot;entityRelationEdgeStyle&quot;,&quot;startArrow&quot;:&quot;none&quot;,&quot;endArrow&quot;:&quot;none&quot;,&quot;segment&quot;:10,&quot;curved&quot;:1,&quot;sourcePerimeterSpacing&quot;:0,&quot;targetPerimeterSpacing&quot;:0};" vertex="1" parent="1l3ItpdetxaNJWkch8zp-16">
          <mxGeometry x="859" y="518" width="100" height="40" as="geometry" />
        </mxCell>
        <mxCell id="1l3ItpdetxaNJWkch8zp-42" value="" style="edgeStyle=orthogonalEdgeStyle;rounded=0;orthogonalLoop=1;jettySize=auto;html=1;startArrow=none;endArrow=none;segment=10;curved=1;sourcePerimeterSpacing=0;targetPerimeterSpacing=0;noEdgeStyle=1;orthogonal=1;" edge="1" source="1l3ItpdetxaNJWkch8zp-21" target="1l3ItpdetxaNJWkch8zp-43" parent="1l3ItpdetxaNJWkch8zp-16">
          <mxGeometry relative="1" as="geometry" />
        </mxCell>
        <mxCell id="1l3ItpdetxaNJWkch8zp-43" value="Central Idea" style="ellipse;whiteSpace=wrap;html=1;align=center;treeFolding=1;treeMoving=1;newEdgeStyle={&quot;edgeStyle&quot;:&quot;entityRelationEdgeStyle&quot;,&quot;startArrow&quot;:&quot;none&quot;,&quot;endArrow&quot;:&quot;none&quot;,&quot;segment&quot;:10,&quot;curved&quot;:1,&quot;sourcePerimeterSpacing&quot;:0,&quot;targetPerimeterSpacing&quot;:0};" vertex="1" parent="1l3ItpdetxaNJWkch8zp-16">
          <mxGeometry x="859" y="598" width="100" height="40" as="geometry" />
        </mxCell>
        <mxCell id="1l3ItpdetxaNJWkch8zp-44" value="" style="edgeStyle=orthogonalEdgeStyle;rounded=0;orthogonalLoop=1;jettySize=auto;html=1;startArrow=none;endArrow=none;segment=10;curved=1;sourcePerimeterSpacing=0;targetPerimeterSpacing=0;noEdgeStyle=1;orthogonal=1;" edge="1" source="1l3ItpdetxaNJWkch8zp-21" target="1l3ItpdetxaNJWkch8zp-45" parent="1l3ItpdetxaNJWkch8zp-16">
          <mxGeometry relative="1" as="geometry" />
        </mxCell>
        <mxCell id="1l3ItpdetxaNJWkch8zp-45" value="Central Idea" style="ellipse;whiteSpace=wrap;html=1;align=center;treeFolding=1;treeMoving=1;newEdgeStyle={&quot;edgeStyle&quot;:&quot;entityRelationEdgeStyle&quot;,&quot;startArrow&quot;:&quot;none&quot;,&quot;endArrow&quot;:&quot;none&quot;,&quot;segment&quot;:10,&quot;curved&quot;:1,&quot;sourcePerimeterSpacing&quot;:0,&quot;targetPerimeterSpacing&quot;:0};" vertex="1" parent="1l3ItpdetxaNJWkch8zp-16">
          <mxGeometry x="859" y="678" width="100" height="40" as="geometry" />
        </mxCell>
        <mxCell id="1l3ItpdetxaNJWkch8zp-46" value="" style="edgeStyle=orthogonalEdgeStyle;rounded=0;orthogonalLoop=1;jettySize=auto;html=1;startArrow=none;endArrow=none;segment=10;curved=1;sourcePerimeterSpacing=0;targetPerimeterSpacing=0;noEdgeStyle=1;orthogonal=1;" edge="1" source="1l3ItpdetxaNJWkch8zp-21" target="1l3ItpdetxaNJWkch8zp-47" parent="1l3ItpdetxaNJWkch8zp-16">
          <mxGeometry relative="1" as="geometry" />
        </mxCell>
        <mxCell id="1l3ItpdetxaNJWkch8zp-47" value="Central Idea" style="ellipse;whiteSpace=wrap;html=1;align=center;treeFolding=1;treeMoving=1;newEdgeStyle={&quot;edgeStyle&quot;:&quot;entityRelationEdgeStyle&quot;,&quot;startArrow&quot;:&quot;none&quot;,&quot;endArrow&quot;:&quot;none&quot;,&quot;segment&quot;:10,&quot;curved&quot;:1,&quot;sourcePerimeterSpacing&quot;:0,&quot;targetPerimeterSpacing&quot;:0};" vertex="1" parent="1l3ItpdetxaNJWkch8zp-16">
          <mxGeometry x="859" y="758" width="100" height="40" as="geometry" />
        </mxCell>
        <mxCell id="1l3ItpdetxaNJWkch8zp-48" value="" style="edgeStyle=orthogonalEdgeStyle;rounded=0;orthogonalLoop=1;jettySize=auto;html=1;startArrow=none;endArrow=none;segment=10;curved=1;sourcePerimeterSpacing=0;targetPerimeterSpacing=0;noEdgeStyle=1;orthogonal=1;" edge="1" source="1l3ItpdetxaNJWkch8zp-21" target="1l3ItpdetxaNJWkch8zp-49" parent="1l3ItpdetxaNJWkch8zp-16">
          <mxGeometry relative="1" as="geometry" />
        </mxCell>
        <mxCell id="1l3ItpdetxaNJWkch8zp-49" value="Central Idea" style="ellipse;whiteSpace=wrap;html=1;align=center;treeFolding=1;treeMoving=1;newEdgeStyle={&quot;edgeStyle&quot;:&quot;entityRelationEdgeStyle&quot;,&quot;startArrow&quot;:&quot;none&quot;,&quot;endArrow&quot;:&quot;none&quot;,&quot;segment&quot;:10,&quot;curved&quot;:1,&quot;sourcePerimeterSpacing&quot;:0,&quot;targetPerimeterSpacing&quot;:0};" vertex="1" parent="1l3ItpdetxaNJWkch8zp-16">
          <mxGeometry x="859" y="838" width="100" height="40" as="geometry" />
        </mxCell>
        <mxCell id="1l3ItpdetxaNJWkch8zp-50" value="" style="edgeStyle=orthogonalEdgeStyle;rounded=0;orthogonalLoop=1;jettySize=auto;html=1;startArrow=none;endArrow=none;segment=10;curved=1;sourcePerimeterSpacing=0;targetPerimeterSpacing=0;noEdgeStyle=1;orthogonal=1;" edge="1" source="1l3ItpdetxaNJWkch8zp-21" target="1l3ItpdetxaNJWkch8zp-51" parent="1l3ItpdetxaNJWkch8zp-16">
          <mxGeometry relative="1" as="geometry" />
        </mxCell>
        <mxCell id="1l3ItpdetxaNJWkch8zp-51" value="Central Idea" style="ellipse;whiteSpace=wrap;html=1;align=center;treeFolding=1;treeMoving=1;newEdgeStyle={&quot;edgeStyle&quot;:&quot;entityRelationEdgeStyle&quot;,&quot;startArrow&quot;:&quot;none&quot;,&quot;endArrow&quot;:&quot;none&quot;,&quot;segment&quot;:10,&quot;curved&quot;:1,&quot;sourcePerimeterSpacing&quot;:0,&quot;targetPerimeterSpacing&quot;:0};" vertex="1" parent="1l3ItpdetxaNJWkch8zp-16">
          <mxGeometry x="859" y="918" width="100" height="40" as="geometry" />
        </mxCell>
        <mxCell id="1l3ItpdetxaNJWkch8zp-52" value="" style="edgeStyle=orthogonalEdgeStyle;rounded=0;orthogonalLoop=1;jettySize=auto;html=1;startArrow=none;endArrow=none;segment=10;curved=1;sourcePerimeterSpacing=0;targetPerimeterSpacing=0;noEdgeStyle=1;orthogonal=1;" edge="1" target="1l3ItpdetxaNJWkch8zp-53" source="1l3ItpdetxaNJWkch8zp-37" parent="1l3ItpdetxaNJWkch8zp-16">
          <mxGeometry relative="1" as="geometry">
            <mxPoint x="250" y="1649" as="sourcePoint" />
          </mxGeometry>
        </mxCell>
        <mxCell id="1l3ItpdetxaNJWkch8zp-53" value="Central Idea" style="ellipse;whiteSpace=wrap;html=1;align=center;treeFolding=1;treeMoving=1;newEdgeStyle={&quot;edgeStyle&quot;:&quot;entityRelationEdgeStyle&quot;,&quot;startArrow&quot;:&quot;none&quot;,&quot;endArrow&quot;:&quot;none&quot;,&quot;segment&quot;:10,&quot;curved&quot;:1,&quot;sourcePerimeterSpacing&quot;:0,&quot;targetPerimeterSpacing&quot;:0};" vertex="1" parent="1l3ItpdetxaNJWkch8zp-16">
          <mxGeometry x="1009" y="358" width="100" height="40" as="geometry" />
        </mxCell>
        <mxCell id="1l3ItpdetxaNJWkch8zp-54" value="" style="edgeStyle=orthogonalEdgeStyle;rounded=0;orthogonalLoop=1;jettySize=auto;html=1;startArrow=none;endArrow=none;segment=10;curved=1;sourcePerimeterSpacing=0;targetPerimeterSpacing=0;noEdgeStyle=1;orthogonal=1;" edge="1" target="1l3ItpdetxaNJWkch8zp-55" source="1l3ItpdetxaNJWkch8zp-53" parent="1l3ItpdetxaNJWkch8zp-16">
          <mxGeometry relative="1" as="geometry">
            <mxPoint x="390" y="1741" as="sourcePoint" />
          </mxGeometry>
        </mxCell>
        <mxCell id="1l3ItpdetxaNJWkch8zp-55" value="Central Idea" style="ellipse;whiteSpace=wrap;html=1;align=center;treeFolding=1;treeMoving=1;newEdgeStyle={&quot;edgeStyle&quot;:&quot;entityRelationEdgeStyle&quot;,&quot;startArrow&quot;:&quot;none&quot;,&quot;endArrow&quot;:&quot;none&quot;,&quot;segment&quot;:10,&quot;curved&quot;:1,&quot;sourcePerimeterSpacing&quot;:0,&quot;targetPerimeterSpacing&quot;:0};" vertex="1" parent="1l3ItpdetxaNJWkch8zp-16">
          <mxGeometry x="1159" y="358" width="100" height="40" as="geometry" />
        </mxCell>
        <mxCell id="1l3ItpdetxaNJWkch8zp-56" value="" style="edgeStyle=orthogonalEdgeStyle;rounded=0;orthogonalLoop=1;jettySize=auto;html=1;startArrow=none;endArrow=none;segment=10;curved=1;sourcePerimeterSpacing=0;targetPerimeterSpacing=0;noEdgeStyle=1;orthogonal=1;" edge="1" target="1l3ItpdetxaNJWkch8zp-57" source="1l3ItpdetxaNJWkch8zp-55" parent="1l3ItpdetxaNJWkch8zp-16">
          <mxGeometry relative="1" as="geometry">
            <mxPoint x="530" y="1741" as="sourcePoint" />
          </mxGeometry>
        </mxCell>
        <mxCell id="1l3ItpdetxaNJWkch8zp-57" value="Central Idea" style="ellipse;whiteSpace=wrap;html=1;align=center;treeFolding=1;treeMoving=1;newEdgeStyle={&quot;edgeStyle&quot;:&quot;entityRelationEdgeStyle&quot;,&quot;startArrow&quot;:&quot;none&quot;,&quot;endArrow&quot;:&quot;none&quot;,&quot;segment&quot;:10,&quot;curved&quot;:1,&quot;sourcePerimeterSpacing&quot;:0,&quot;targetPerimeterSpacing&quot;:0};" vertex="1" parent="1l3ItpdetxaNJWkch8zp-16">
          <mxGeometry x="1309" y="358" width="100" height="40" as="geometry" />
        </mxCell>
        <mxCell id="1l3ItpdetxaNJWkch8zp-58" value="" style="edgeStyle=orthogonalEdgeStyle;rounded=0;orthogonalLoop=1;jettySize=auto;html=1;startArrow=none;endArrow=none;segment=10;curved=1;sourcePerimeterSpacing=0;targetPerimeterSpacing=0;noEdgeStyle=1;orthogonal=1;" edge="1" target="1l3ItpdetxaNJWkch8zp-59" source="1l3ItpdetxaNJWkch8zp-57" parent="1l3ItpdetxaNJWkch8zp-16">
          <mxGeometry relative="1" as="geometry">
            <mxPoint x="670" y="1741" as="sourcePoint" />
          </mxGeometry>
        </mxCell>
        <mxCell id="1l3ItpdetxaNJWkch8zp-59" value="Central Idea" style="ellipse;whiteSpace=wrap;html=1;align=center;treeFolding=1;treeMoving=1;newEdgeStyle={&quot;edgeStyle&quot;:&quot;entityRelationEdgeStyle&quot;,&quot;startArrow&quot;:&quot;none&quot;,&quot;endArrow&quot;:&quot;none&quot;,&quot;segment&quot;:10,&quot;curved&quot;:1,&quot;sourcePerimeterSpacing&quot;:0,&quot;targetPerimeterSpacing&quot;:0};" vertex="1" parent="1l3ItpdetxaNJWkch8zp-16">
          <mxGeometry x="1459" y="358" width="100" height="40" as="geometry" />
        </mxCell>
        <mxCell id="1l3ItpdetxaNJWkch8zp-72" value="" style="edgeStyle=orthogonalEdgeStyle;rounded=0;orthogonalLoop=1;jettySize=auto;html=1;startArrow=none;endArrow=none;segment=10;curved=1;sourcePerimeterSpacing=0;targetPerimeterSpacing=0;noEdgeStyle=1;orthogonal=1;" edge="1" visible="0" target="1l3ItpdetxaNJWkch8zp-73" source="1l3ItpdetxaNJWkch8zp-39" parent="1l3ItpdetxaNJWkch8zp-16">
          <mxGeometry relative="1" as="geometry">
            <mxPoint x="417" y="929" as="sourcePoint" />
            <Array as="points">
              <mxPoint x="666" y="-488" />
              <mxPoint x="670.5447637333127" y="-412" />
            </Array>
          </mxGeometry>
        </mxCell>
        <mxCell id="1l3ItpdetxaNJWkch8zp-73" value="Central Idea" style="ellipse;whiteSpace=wrap;html=1;align=center;treeFolding=1;treeMoving=1;newEdgeStyle={&quot;edgeStyle&quot;:&quot;entityRelationEdgeStyle&quot;,&quot;startArrow&quot;:&quot;none&quot;,&quot;endArrow&quot;:&quot;none&quot;,&quot;segment&quot;:10,&quot;curved&quot;:1,&quot;sourcePerimeterSpacing&quot;:0,&quot;targetPerimeterSpacing&quot;:0};" vertex="1" visible="0" parent="1l3ItpdetxaNJWkch8zp-16">
          <mxGeometry x="620.5447637333127" y="-400" width="100" height="40" as="geometry" />
        </mxCell>
        <mxCell id="1l3ItpdetxaNJWkch8zp-74" value="" style="edgeStyle=orthogonalEdgeStyle;rounded=0;orthogonalLoop=1;jettySize=auto;html=1;startArrow=none;endArrow=none;segment=10;curved=1;sourcePerimeterSpacing=0;targetPerimeterSpacing=0;noEdgeStyle=1;orthogonal=1;" edge="1" source="1l3ItpdetxaNJWkch8zp-21" target="1l3ItpdetxaNJWkch8zp-75" parent="1l3ItpdetxaNJWkch8zp-16">
          <mxGeometry relative="1" as="geometry" />
        </mxCell>
        <mxCell id="1l3ItpdetxaNJWkch8zp-75" value="Central Idea" style="ellipse;whiteSpace=wrap;html=1;align=center;treeFolding=1;treeMoving=1;newEdgeStyle={&quot;edgeStyle&quot;:&quot;entityRelationEdgeStyle&quot;,&quot;startArrow&quot;:&quot;none&quot;,&quot;endArrow&quot;:&quot;none&quot;,&quot;segment&quot;:10,&quot;curved&quot;:1,&quot;sourcePerimeterSpacing&quot;:0,&quot;targetPerimeterSpacing&quot;:0};" vertex="1" parent="1l3ItpdetxaNJWkch8zp-16">
          <mxGeometry x="859" y="1218" width="100" height="40" as="geometry" />
        </mxCell>
        <mxCell id="1l3ItpdetxaNJWkch8zp-76" value="" style="edgeStyle=orthogonalEdgeStyle;rounded=0;orthogonalLoop=1;jettySize=auto;html=1;startArrow=none;endArrow=none;segment=10;curved=1;sourcePerimeterSpacing=0;targetPerimeterSpacing=0;noEdgeStyle=1;orthogonal=1;" edge="1" source="1l3ItpdetxaNJWkch8zp-21" target="1l3ItpdetxaNJWkch8zp-77" parent="1l3ItpdetxaNJWkch8zp-16">
          <mxGeometry relative="1" as="geometry" />
        </mxCell>
        <mxCell id="1l3ItpdetxaNJWkch8zp-77" value="Central Idea" style="ellipse;whiteSpace=wrap;html=1;align=center;treeFolding=1;treeMoving=1;newEdgeStyle={&quot;edgeStyle&quot;:&quot;entityRelationEdgeStyle&quot;,&quot;startArrow&quot;:&quot;none&quot;,&quot;endArrow&quot;:&quot;none&quot;,&quot;segment&quot;:10,&quot;curved&quot;:1,&quot;sourcePerimeterSpacing&quot;:0,&quot;targetPerimeterSpacing&quot;:0};" vertex="1" parent="1l3ItpdetxaNJWkch8zp-16">
          <mxGeometry x="859" y="998" width="100" height="40" as="geometry" />
        </mxCell>
        <mxCell id="1l3ItpdetxaNJWkch8zp-78" value="Sub Topic" style="whiteSpace=wrap;html=1;rounded=1;arcSize=50;align=center;verticalAlign=middle;strokeWidth=1;autosize=1;spacing=4;treeFolding=1;treeMoving=1;newEdgeStyle={&quot;edgeStyle&quot;:&quot;entityRelationEdgeStyle&quot;,&quot;startArrow&quot;:&quot;none&quot;,&quot;endArrow&quot;:&quot;none&quot;,&quot;segment&quot;:10,&quot;curved&quot;:1,&quot;sourcePerimeterSpacing&quot;:0,&quot;targetPerimeterSpacing&quot;:0};" vertex="1" parent="1l3ItpdetxaNJWkch8zp-16">
          <mxGeometry x="859" y="1078" width="100" height="30" as="geometry" />
        </mxCell>
        <mxCell id="1l3ItpdetxaNJWkch8zp-79" value="" style="edgeStyle=orthogonalEdgeStyle;startArrow=none;endArrow=none;segment=10;curved=1;sourcePerimeterSpacing=0;targetPerimeterSpacing=0;rounded=0;exitDx=0;exitDy=0;noEdgeStyle=1;orthogonal=1;" edge="1" target="1l3ItpdetxaNJWkch8zp-78" parent="1l3ItpdetxaNJWkch8zp-16" source="1l3ItpdetxaNJWkch8zp-21">
          <mxGeometry relative="1" as="geometry">
            <mxPoint x="-50" y="929" as="sourcePoint" />
          </mxGeometry>
        </mxCell>
        <mxCell id="1l3ItpdetxaNJWkch8zp-80" value="" style="edgeStyle=orthogonalEdgeStyle;startArrow=none;endArrow=none;segment=10;curved=1;sourcePerimeterSpacing=0;targetPerimeterSpacing=0;rounded=0;exitDx=0;exitDy=0;noEdgeStyle=1;orthogonal=1;" edge="1" target="1l3ItpdetxaNJWkch8zp-81" source="1l3ItpdetxaNJWkch8zp-21" parent="1l3ItpdetxaNJWkch8zp-16">
          <mxGeometry relative="1" as="geometry">
            <mxPoint x="150" y="1649" as="sourcePoint" />
          </mxGeometry>
        </mxCell>
        <mxCell id="1l3ItpdetxaNJWkch8zp-81" value="Sub Topic" style="whiteSpace=wrap;html=1;rounded=1;arcSize=50;align=center;verticalAlign=middle;strokeWidth=1;autosize=1;spacing=4;treeFolding=1;treeMoving=1;newEdgeStyle={&quot;edgeStyle&quot;:&quot;entityRelationEdgeStyle&quot;,&quot;startArrow&quot;:&quot;none&quot;,&quot;endArrow&quot;:&quot;none&quot;,&quot;segment&quot;:10,&quot;curved&quot;:1,&quot;sourcePerimeterSpacing&quot;:0,&quot;targetPerimeterSpacing&quot;:0};" vertex="1" parent="1l3ItpdetxaNJWkch8zp-16">
          <mxGeometry x="859" y="1148" width="100" height="30" as="geometry" />
        </mxCell>
        <mxCell id="1l3ItpdetxaNJWkch8zp-83" value="Division" style="whiteSpace=wrap;html=1;align=center;verticalAlign=middle;treeFolding=1;treeMoving=1;newEdgeStyle={&quot;edgeStyle&quot;:&quot;elbowEdgeStyle&quot;,&quot;startArrow&quot;:&quot;none&quot;,&quot;endArrow&quot;:&quot;none&quot;};" vertex="1" parent="1l3ItpdetxaNJWkch8zp-16">
          <mxGeometry x="1909" y="40" width="100" height="60" as="geometry" />
        </mxCell>
        <mxCell id="1l3ItpdetxaNJWkch8zp-87" value="" style="edgeStyle=orthogonalEdgeStyle;elbow=vertical;sourcePerimeterSpacing=0;targetPerimeterSpacing=0;startArrow=none;endArrow=none;rounded=0;curved=0;noEdgeStyle=1;orthogonal=1;" edge="1" target="1l3ItpdetxaNJWkch8zp-88" source="1l3ItpdetxaNJWkch8zp-83" parent="1l3ItpdetxaNJWkch8zp-16">
          <mxGeometry relative="1" as="geometry">
            <mxPoint x="60" y="1419" as="sourcePoint" />
            <Array as="points">
              <mxPoint x="1959" y="112" />
              <mxPoint x="1959" y="188" />
            </Array>
          </mxGeometry>
        </mxCell>
        <mxCell id="1l3ItpdetxaNJWkch8zp-88" value="Division" style="whiteSpace=wrap;html=1;align=center;verticalAlign=middle;treeFolding=1;treeMoving=1;newEdgeStyle={&quot;edgeStyle&quot;:&quot;elbowEdgeStyle&quot;,&quot;startArrow&quot;:&quot;none&quot;,&quot;endArrow&quot;:&quot;none&quot;};" vertex="1" parent="1l3ItpdetxaNJWkch8zp-16">
          <mxGeometry x="1909" y="200" width="100" height="60" as="geometry" />
        </mxCell>
        <mxCell id="1l3ItpdetxaNJWkch8zp-97" value="Sub Section" style="whiteSpace=wrap;html=1;align=center;verticalAlign=middle;treeFolding=1;treeMoving=1;" vertex="1" parent="1l3ItpdetxaNJWkch8zp-16">
          <mxGeometry x="1816" y="720" width="100" height="60" as="geometry" />
        </mxCell>
        <mxCell id="1l3ItpdetxaNJWkch8zp-98" value="Sub Section" style="whiteSpace=wrap;html=1;align=center;verticalAlign=middle;treeFolding=1;treeMoving=1;" vertex="1" visible="0" parent="1l3ItpdetxaNJWkch8zp-16">
          <mxGeometry x="626.6644980976416" y="-100" width="100" height="60" as="geometry" />
        </mxCell>
        <mxCell id="1l3ItpdetxaNJWkch8zp-96" value="" style="edgeStyle=orthogonalEdgeStyle;sourcePerimeterSpacing=0;targetPerimeterSpacing=0;startArrow=none;endArrow=none;rounded=0;targetPortConstraint=eastwest;sourcePortConstraint=northsouth;curved=0;rounded=0;exitDx=0;exitDy=0;noEdgeStyle=1;orthogonal=1;" edge="1" visible="0" target="1l3ItpdetxaNJWkch8zp-100" parent="1l3ItpdetxaNJWkch8zp-16" source="1l3ItpdetxaNJWkch8zp-73">
          <mxGeometry relative="1" as="geometry">
            <mxPoint x="387" y="549" as="sourcePoint" />
            <Array as="points">
              <mxPoint x="670.5447637333127" y="-348" />
              <mxPoint x="673.6046309154772" y="-272" />
            </Array>
          </mxGeometry>
        </mxCell>
        <mxCell id="1l3ItpdetxaNJWkch8zp-99" value="" style="edgeStyle=orthogonalEdgeStyle;sourcePerimeterSpacing=0;targetPerimeterSpacing=0;startArrow=none;endArrow=none;rounded=0;targetPortConstraint=eastwest;sourcePortConstraint=northsouth;curved=0;rounded=0;exitDx=0;exitDy=0;noEdgeStyle=1;orthogonal=1;" edge="1" visible="0" target="1l3ItpdetxaNJWkch8zp-98" source="1l3ItpdetxaNJWkch8zp-100" parent="1l3ItpdetxaNJWkch8zp-16">
          <mxGeometry relative="1" as="geometry">
            <mxPoint x="507" y="841" as="sourcePoint" />
            <Array as="points">
              <mxPoint x="673.6046309154772" y="-188" />
              <mxPoint x="676.6644980976416" y="-112" />
            </Array>
          </mxGeometry>
        </mxCell>
        <mxCell id="1l3ItpdetxaNJWkch8zp-100" value="Sub Section" style="whiteSpace=wrap;html=1;align=center;verticalAlign=middle;treeFolding=1;treeMoving=1;" vertex="1" visible="0" parent="1l3ItpdetxaNJWkch8zp-16">
          <mxGeometry x="623.6046309154772" y="-260" width="100" height="60" as="geometry" />
        </mxCell>
      </root>
    </mxGraphModel>
  </diagram>
</mxfile>
